<mxfile host="app.diagrams.net" agent="Mozilla/5.0 (Windows NT 10.0; Win64; x64) AppleWebKit/537.36 (KHTML, like Gecko) Chrome/141.0.0.0 Safari/537.36" version="28.2.8">
  <diagram name="Page-1" id="n-39YtXvomXWgScTYqmD">
    <mxGraphModel dx="1305" dy="2043" grid="1" gridSize="10" guides="1" tooltips="1" connect="1" arrows="1" fold="1" page="1" pageScale="1" pageWidth="827" pageHeight="1169" math="0" shadow="0">
      <root>
        <mxCell id="0" />
        <mxCell id="1" parent="0" />
        <mxCell id="KpxgFs7-lDWQwkG9Y63v-5" style="edgeStyle=orthogonalEdgeStyle;rounded=0;orthogonalLoop=1;jettySize=auto;html=1;entryX=0.5;entryY=0;entryDx=0;entryDy=0;startArrow=diamondThin;startFill=1;startSize=16;endArrow=none;endFill=0;fontSize=12;" parent="1" source="8U6sPxt56-lUsNDC9dBj-130" target="8U6sPxt56-lUsNDC9dBj-149" edge="1">
          <mxGeometry relative="1" as="geometry">
            <Array as="points">
              <mxPoint x="2770" y="680" />
            </Array>
          </mxGeometry>
        </mxCell>
        <mxCell id="8U6sPxt56-lUsNDC9dBj-130" value="ATM" style="swimlane;fontStyle=1;align=center;verticalAlign=top;childLayout=stackLayout;horizontal=1;startSize=27.555555555555557;horizontalStack=0;resizeParent=1;resizeParentMax=0;resizeLast=0;collapsible=0;marginBottom=0;fontSize=12;" parent="1" vertex="1">
          <mxGeometry x="2630" y="50" width="350" height="387.99555555555554" as="geometry" />
        </mxCell>
        <mxCell id="8U6sPxt56-lUsNDC9dBj-131" value="-userAuthenticated: boolean" style="text;strokeColor=none;fillColor=none;align=left;verticalAlign=top;spacingLeft=4;spacingRight=4;overflow=hidden;rotatable=0;points=[[0,0.5],[1,0.5]];portConstraint=eastwest;fontSize=12;" parent="8U6sPxt56-lUsNDC9dBj-130" vertex="1">
          <mxGeometry y="27.555555555555557" width="350" height="22.44" as="geometry" />
        </mxCell>
        <mxCell id="8U6sPxt56-lUsNDC9dBj-132" value="-currentAccountNumber: int" style="text;strokeColor=none;fillColor=none;align=left;verticalAlign=top;spacingLeft=4;spacingRight=4;overflow=hidden;rotatable=0;points=[[0,0.5],[1,0.5]];portConstraint=eastwest;fontSize=12;" parent="8U6sPxt56-lUsNDC9dBj-130" vertex="1">
          <mxGeometry y="49.995555555555555" width="350" height="20" as="geometry" />
        </mxCell>
        <mxCell id="8U6sPxt56-lUsNDC9dBj-133" value="-screen: Screen" style="text;strokeColor=none;fillColor=none;align=left;verticalAlign=top;spacingLeft=4;spacingRight=4;overflow=hidden;rotatable=0;points=[[0,0.5],[1,0.5]];portConstraint=eastwest;fontSize=12;" parent="8U6sPxt56-lUsNDC9dBj-130" vertex="1">
          <mxGeometry y="69.99555555555555" width="350" height="20" as="geometry" />
        </mxCell>
        <mxCell id="8U6sPxt56-lUsNDC9dBj-134" value="-keypad: Keypad" style="text;strokeColor=none;fillColor=none;align=left;verticalAlign=top;spacingLeft=4;spacingRight=4;overflow=hidden;rotatable=0;points=[[0,0.5],[1,0.5]];portConstraint=eastwest;fontSize=12;" parent="8U6sPxt56-lUsNDC9dBj-130" vertex="1">
          <mxGeometry y="89.99555555555555" width="350" height="20" as="geometry" />
        </mxCell>
        <mxCell id="8U6sPxt56-lUsNDC9dBj-135" value="-cashDispenser: CashDispenser" style="text;strokeColor=none;fillColor=none;align=left;verticalAlign=top;spacingLeft=4;spacingRight=4;overflow=hidden;rotatable=0;points=[[0,0.5],[1,0.5]];portConstraint=eastwest;fontSize=12;" parent="8U6sPxt56-lUsNDC9dBj-130" vertex="1">
          <mxGeometry y="109.99555555555555" width="350" height="20" as="geometry" />
        </mxCell>
        <mxCell id="8U6sPxt56-lUsNDC9dBj-136" value="-depositSlot: DepositSlot" style="text;strokeColor=none;fillColor=none;align=left;verticalAlign=top;spacingLeft=4;spacingRight=4;overflow=hidden;rotatable=0;points=[[0,0.5],[1,0.5]];portConstraint=eastwest;fontSize=12;" parent="8U6sPxt56-lUsNDC9dBj-130" vertex="1">
          <mxGeometry y="129.99555555555554" width="350" height="20" as="geometry" />
        </mxCell>
        <mxCell id="8U6sPxt56-lUsNDC9dBj-137" value="-bankDatabase: BankDatabase" style="text;strokeColor=none;fillColor=none;align=left;verticalAlign=top;spacingLeft=4;spacingRight=4;overflow=hidden;rotatable=0;points=[[0,0.5],[1,0.5]];portConstraint=eastwest;fontSize=12;" parent="8U6sPxt56-lUsNDC9dBj-130" vertex="1">
          <mxGeometry y="149.99555555555554" width="350" height="20" as="geometry" />
        </mxCell>
        <mxCell id="8U6sPxt56-lUsNDC9dBj-138" value="-BALANCE_INQUIRY: int" style="text;strokeColor=none;fillColor=none;align=left;verticalAlign=top;spacingLeft=4;spacingRight=4;overflow=hidden;rotatable=0;points=[[0,0.5],[1,0.5]];portConstraint=eastwest;fontSize=12;" parent="8U6sPxt56-lUsNDC9dBj-130" vertex="1">
          <mxGeometry y="169.99555555555554" width="350" height="20" as="geometry" />
        </mxCell>
        <mxCell id="8U6sPxt56-lUsNDC9dBj-139" value="-WITHDRAWAL: int" style="text;strokeColor=none;fillColor=none;align=left;verticalAlign=top;spacingLeft=4;spacingRight=4;overflow=hidden;rotatable=0;points=[[0,0.5],[1,0.5]];portConstraint=eastwest;fontSize=12;" parent="8U6sPxt56-lUsNDC9dBj-130" vertex="1">
          <mxGeometry y="189.99555555555554" width="350" height="20" as="geometry" />
        </mxCell>
        <mxCell id="8U6sPxt56-lUsNDC9dBj-140" value="-DEPOSIT: int" style="text;strokeColor=none;fillColor=none;align=left;verticalAlign=top;spacingLeft=4;spacingRight=4;overflow=hidden;rotatable=0;points=[[0,0.5],[1,0.5]];portConstraint=eastwest;fontSize=12;" parent="8U6sPxt56-lUsNDC9dBj-130" vertex="1">
          <mxGeometry y="209.99555555555554" width="350" height="20" as="geometry" />
        </mxCell>
        <mxCell id="8U6sPxt56-lUsNDC9dBj-141" value="-EXIT: int" style="text;strokeColor=none;fillColor=none;align=left;verticalAlign=top;spacingLeft=4;spacingRight=4;overflow=hidden;rotatable=0;points=[[0,0.5],[1,0.5]];portConstraint=eastwest;fontSize=12;" parent="8U6sPxt56-lUsNDC9dBj-130" vertex="1">
          <mxGeometry y="229.99555555555554" width="350" height="20" as="geometry" />
        </mxCell>
        <mxCell id="8U6sPxt56-lUsNDC9dBj-142" style="line;strokeWidth=1;fillColor=none;align=left;verticalAlign=middle;spacingTop=-1;spacingLeft=3;spacingRight=3;rotatable=0;labelPosition=right;points=[];portConstraint=eastwest;strokeColor=inherit;fontSize=12;" parent="8U6sPxt56-lUsNDC9dBj-130" vertex="1">
          <mxGeometry y="249.99555555555554" width="350" height="8" as="geometry" />
        </mxCell>
        <mxCell id="8U6sPxt56-lUsNDC9dBj-143" value="&lt;&lt;constructor&gt;&gt;ATM()" style="text;strokeColor=none;fillColor=none;align=left;verticalAlign=top;spacingLeft=4;spacingRight=4;overflow=hidden;rotatable=0;points=[[0,0.5],[1,0.5]];portConstraint=eastwest;fontSize=12;" parent="8U6sPxt56-lUsNDC9dBj-130" vertex="1">
          <mxGeometry y="257.99555555555554" width="350" height="20" as="geometry" />
        </mxCell>
        <mxCell id="8U6sPxt56-lUsNDC9dBj-144" value="+run() : void" style="text;strokeColor=none;fillColor=none;align=left;verticalAlign=top;spacingLeft=4;spacingRight=4;overflow=hidden;rotatable=0;points=[[0,0.5],[1,0.5]];portConstraint=eastwest;fontSize=12;" parent="8U6sPxt56-lUsNDC9dBj-130" vertex="1">
          <mxGeometry y="277.99555555555554" width="350" height="22" as="geometry" />
        </mxCell>
        <mxCell id="8U6sPxt56-lUsNDC9dBj-145" value="-authenticateUser() : void" style="text;strokeColor=none;fillColor=none;align=left;verticalAlign=top;spacingLeft=4;spacingRight=4;overflow=hidden;rotatable=0;points=[[0,0.5],[1,0.5]];portConstraint=eastwest;fontSize=12;" parent="8U6sPxt56-lUsNDC9dBj-130" vertex="1">
          <mxGeometry y="299.99555555555554" width="350" height="20" as="geometry" />
        </mxCell>
        <mxCell id="8U6sPxt56-lUsNDC9dBj-146" value="-performTransactions() : void" style="text;strokeColor=none;fillColor=none;align=left;verticalAlign=top;spacingLeft=4;spacingRight=4;overflow=hidden;rotatable=0;points=[[0,0.5],[1,0.5]];portConstraint=eastwest;fontSize=12;" parent="8U6sPxt56-lUsNDC9dBj-130" vertex="1">
          <mxGeometry y="319.99555555555554" width="350" height="20" as="geometry" />
        </mxCell>
        <mxCell id="8U6sPxt56-lUsNDC9dBj-147" value="-displayMainMenu() : int" style="text;strokeColor=none;fillColor=none;align=left;verticalAlign=top;spacingLeft=4;spacingRight=4;overflow=hidden;rotatable=0;points=[[0,0.5],[1,0.5]];portConstraint=eastwest;fontSize=12;" parent="8U6sPxt56-lUsNDC9dBj-130" vertex="1">
          <mxGeometry y="339.99555555555554" width="350" height="20" as="geometry" />
        </mxCell>
        <mxCell id="8U6sPxt56-lUsNDC9dBj-148" value="-createTransaction(type: int) : Transaction" style="text;strokeColor=none;fillColor=none;align=left;verticalAlign=top;spacingLeft=4;spacingRight=4;overflow=hidden;rotatable=0;points=[[0,0.5],[1,0.5]];portConstraint=eastwest;fontSize=12;" parent="8U6sPxt56-lUsNDC9dBj-130" vertex="1">
          <mxGeometry y="359.99555555555554" width="350" height="28" as="geometry" />
        </mxCell>
        <mxCell id="KpxgFs7-lDWQwkG9Y63v-6" style="edgeStyle=orthogonalEdgeStyle;rounded=0;orthogonalLoop=1;jettySize=auto;html=1;endArrow=none;endFill=0;fontSize=12;" parent="1" source="8U6sPxt56-lUsNDC9dBj-154" edge="1">
          <mxGeometry relative="1" as="geometry">
            <mxPoint x="2770" y="600" as="targetPoint" />
            <Array as="points">
              <mxPoint x="2425" y="600" />
              <mxPoint x="2770" y="600" />
            </Array>
          </mxGeometry>
        </mxCell>
        <mxCell id="8U6sPxt56-lUsNDC9dBj-154" value="Keypad" style="swimlane;fontStyle=1;align=center;verticalAlign=top;childLayout=stackLayout;horizontal=1;startSize=40;horizontalStack=0;resizeParent=1;resizeParentMax=0;resizeLast=0;collapsible=0;marginBottom=0;fontSize=12;" parent="1" vertex="1">
          <mxGeometry x="2330" y="680.0000000000001" width="220" height="140" as="geometry" />
        </mxCell>
        <mxCell id="8U6sPxt56-lUsNDC9dBj-155" value="-input: Scanner" style="text;strokeColor=none;fillColor=none;align=left;verticalAlign=top;spacingLeft=4;spacingRight=4;overflow=hidden;rotatable=0;points=[[0,0.5],[1,0.5]];portConstraint=eastwest;fontSize=12;" parent="8U6sPxt56-lUsNDC9dBj-154" vertex="1">
          <mxGeometry y="40" width="220" height="30" as="geometry" />
        </mxCell>
        <mxCell id="8U6sPxt56-lUsNDC9dBj-156" style="line;strokeWidth=1;fillColor=none;align=left;verticalAlign=middle;spacingTop=-1;spacingLeft=3;spacingRight=3;rotatable=0;labelPosition=right;points=[];portConstraint=eastwest;strokeColor=inherit;fontSize=12;" parent="8U6sPxt56-lUsNDC9dBj-154" vertex="1">
          <mxGeometry y="70" width="220" height="8" as="geometry" />
        </mxCell>
        <mxCell id="8U6sPxt56-lUsNDC9dBj-157" value="&lt;&lt;constructor&gt;&gt;Keypad()" style="text;strokeColor=none;fillColor=none;align=left;verticalAlign=top;spacingLeft=4;spacingRight=4;overflow=hidden;rotatable=0;points=[[0,0.5],[1,0.5]];portConstraint=eastwest;fontSize=12;" parent="8U6sPxt56-lUsNDC9dBj-154" vertex="1">
          <mxGeometry y="78" width="220" height="32" as="geometry" />
        </mxCell>
        <mxCell id="8U6sPxt56-lUsNDC9dBj-158" value="+getInput() : int" style="text;strokeColor=none;fillColor=none;align=left;verticalAlign=top;spacingLeft=4;spacingRight=4;overflow=hidden;rotatable=0;points=[[0,0.5],[1,0.5]];portConstraint=eastwest;fontSize=12;" parent="8U6sPxt56-lUsNDC9dBj-154" vertex="1">
          <mxGeometry y="110" width="220" height="30" as="geometry" />
        </mxCell>
        <mxCell id="KpxgFs7-lDWQwkG9Y63v-36" style="edgeStyle=orthogonalEdgeStyle;rounded=0;orthogonalLoop=1;jettySize=auto;html=1;endArrow=none;endFill=0;fontSize=12;" parent="1" source="8U6sPxt56-lUsNDC9dBj-159" edge="1">
          <mxGeometry relative="1" as="geometry">
            <mxPoint x="2770" y="530" as="targetPoint" />
            <Array as="points">
              <mxPoint x="1485" y="1190" />
              <mxPoint x="3000" y="1190" />
              <mxPoint x="3000" y="530" />
            </Array>
          </mxGeometry>
        </mxCell>
        <mxCell id="8U6sPxt56-lUsNDC9dBj-159" value="CashDispenser" style="swimlane;fontStyle=1;align=center;verticalAlign=top;childLayout=stackLayout;horizontal=1;startSize=34.666666666666664;horizontalStack=0;resizeParent=1;resizeParentMax=0;resizeLast=0;collapsible=0;marginBottom=0;fontSize=12;" parent="1" vertex="1">
          <mxGeometry x="1310" y="980" width="350" height="184.99666666666667" as="geometry" />
        </mxCell>
        <mxCell id="8U6sPxt56-lUsNDC9dBj-160" value="-INITIAL_COUNT: int" style="text;strokeColor=none;fillColor=none;align=left;verticalAlign=top;spacingLeft=4;spacingRight=4;overflow=hidden;rotatable=0;points=[[0,0.5],[1,0.5]];portConstraint=eastwest;fontSize=12;" parent="8U6sPxt56-lUsNDC9dBj-159" vertex="1">
          <mxGeometry y="34.666666666666664" width="350" height="25.33" as="geometry" />
        </mxCell>
        <mxCell id="8U6sPxt56-lUsNDC9dBj-161" value="-count: int" style="text;strokeColor=none;fillColor=none;align=left;verticalAlign=top;spacingLeft=4;spacingRight=4;overflow=hidden;rotatable=0;points=[[0,0.5],[1,0.5]];portConstraint=eastwest;fontSize=12;" parent="8U6sPxt56-lUsNDC9dBj-159" vertex="1">
          <mxGeometry y="59.99666666666666" width="350" height="30" as="geometry" />
        </mxCell>
        <mxCell id="8U6sPxt56-lUsNDC9dBj-162" style="line;strokeWidth=1;fillColor=none;align=left;verticalAlign=middle;spacingTop=-1;spacingLeft=3;spacingRight=3;rotatable=0;labelPosition=right;points=[];portConstraint=eastwest;strokeColor=inherit;fontSize=12;" parent="8U6sPxt56-lUsNDC9dBj-159" vertex="1">
          <mxGeometry y="89.99666666666667" width="350" height="8" as="geometry" />
        </mxCell>
        <mxCell id="8U6sPxt56-lUsNDC9dBj-163" value="&lt;&lt;constructor&gt;&gt;CashDispenser()" style="text;strokeColor=none;fillColor=none;align=left;verticalAlign=top;spacingLeft=4;spacingRight=4;overflow=hidden;rotatable=0;points=[[0,0.5],[1,0.5]];portConstraint=eastwest;fontSize=12;" parent="8U6sPxt56-lUsNDC9dBj-159" vertex="1">
          <mxGeometry y="97.99666666666667" width="350" height="22" as="geometry" />
        </mxCell>
        <mxCell id="8U6sPxt56-lUsNDC9dBj-164" value="+dispenseCash(amount: int) : void" style="text;strokeColor=none;fillColor=none;align=left;verticalAlign=top;spacingLeft=4;spacingRight=4;overflow=hidden;rotatable=0;points=[[0,0.5],[1,0.5]];portConstraint=eastwest;fontSize=12;" parent="8U6sPxt56-lUsNDC9dBj-159" vertex="1">
          <mxGeometry y="119.99666666666667" width="350" height="30" as="geometry" />
        </mxCell>
        <mxCell id="8U6sPxt56-lUsNDC9dBj-165" value="+isSufficientCashAvailable(amount: int) : boolean" style="text;strokeColor=none;fillColor=none;align=left;verticalAlign=top;spacingLeft=4;spacingRight=4;overflow=hidden;rotatable=0;points=[[0,0.5],[1,0.5]];portConstraint=eastwest;fontSize=12;" parent="8U6sPxt56-lUsNDC9dBj-159" vertex="1">
          <mxGeometry y="149.99666666666667" width="350" height="35" as="geometry" />
        </mxCell>
        <mxCell id="KpxgFs7-lDWQwkG9Y63v-37" style="edgeStyle=orthogonalEdgeStyle;rounded=0;orthogonalLoop=1;jettySize=auto;html=1;endArrow=none;endFill=0;fontSize=12;" parent="1" source="8U6sPxt56-lUsNDC9dBj-166" edge="1">
          <mxGeometry relative="1" as="geometry">
            <mxPoint x="3000.941233915441" y="1025" as="targetPoint" />
          </mxGeometry>
        </mxCell>
        <mxCell id="8U6sPxt56-lUsNDC9dBj-166" value="DepositSlot" style="swimlane;fontStyle=1;align=center;verticalAlign=top;childLayout=stackLayout;horizontal=1;startSize=47.2;horizontalStack=0;resizeParent=1;resizeParentMax=0;resizeLast=0;collapsible=0;marginBottom=0;fontSize=12;" parent="1" vertex="1">
          <mxGeometry x="1918" y="980" width="240" height="90" as="geometry" />
        </mxCell>
        <mxCell id="8U6sPxt56-lUsNDC9dBj-167" style="line;strokeWidth=1;fillColor=none;align=left;verticalAlign=middle;spacingTop=-1;spacingLeft=3;spacingRight=3;rotatable=0;labelPosition=right;points=[];portConstraint=eastwest;strokeColor=inherit;fontSize=12;" parent="8U6sPxt56-lUsNDC9dBj-166" vertex="1">
          <mxGeometry y="47.2" width="240" height="8" as="geometry" />
        </mxCell>
        <mxCell id="8U6sPxt56-lUsNDC9dBj-168" value="+isEnvelopeReceived() : boolean" style="text;strokeColor=none;fillColor=none;align=left;verticalAlign=top;spacingLeft=4;spacingRight=4;overflow=hidden;rotatable=0;points=[[0,0.5],[1,0.5]];portConstraint=eastwest;fontSize=12;" parent="8U6sPxt56-lUsNDC9dBj-166" vertex="1">
          <mxGeometry y="55.2" width="240" height="34.8" as="geometry" />
        </mxCell>
        <mxCell id="8U6sPxt56-lUsNDC9dBj-169" value="BankDatabase" style="swimlane;fontStyle=1;align=center;verticalAlign=top;childLayout=stackLayout;horizontal=1;startSize=31.11111111111111;horizontalStack=0;resizeParent=1;resizeParentMax=0;resizeLast=0;collapsible=0;marginBottom=0;fontSize=12;" parent="1" vertex="1">
          <mxGeometry x="1210" y="-220" width="550" height="287.1111111111111" as="geometry" />
        </mxCell>
        <mxCell id="8U6sPxt56-lUsNDC9dBj-170" value="-accounts: Account[]" style="text;strokeColor=none;fillColor=none;align=left;verticalAlign=top;spacingLeft=4;spacingRight=4;overflow=hidden;rotatable=0;points=[[0,0.5],[1,0.5]];portConstraint=eastwest;fontSize=12;" parent="8U6sPxt56-lUsNDC9dBj-169" vertex="1">
          <mxGeometry y="31.11111111111111" width="550" height="31" as="geometry" />
        </mxCell>
        <mxCell id="8U6sPxt56-lUsNDC9dBj-171" style="line;strokeWidth=1;fillColor=none;align=left;verticalAlign=middle;spacingTop=-1;spacingLeft=3;spacingRight=3;rotatable=0;labelPosition=right;points=[];portConstraint=eastwest;strokeColor=inherit;fontSize=12;" parent="8U6sPxt56-lUsNDC9dBj-169" vertex="1">
          <mxGeometry y="62.111111111111114" width="550" height="8" as="geometry" />
        </mxCell>
        <mxCell id="8U6sPxt56-lUsNDC9dBj-172" value="&lt;&lt;constructor&gt;&gt;BankDatabase()" style="text;strokeColor=none;fillColor=none;align=left;verticalAlign=top;spacingLeft=4;spacingRight=4;overflow=hidden;rotatable=0;points=[[0,0.5],[1,0.5]];portConstraint=eastwest;fontSize=12;" parent="8U6sPxt56-lUsNDC9dBj-169" vertex="1">
          <mxGeometry y="70.11111111111111" width="550" height="31" as="geometry" />
        </mxCell>
        <mxCell id="8U6sPxt56-lUsNDC9dBj-173" value="-getAccount(accountNumber: int) : Account" style="text;strokeColor=none;fillColor=none;align=left;verticalAlign=top;spacingLeft=4;spacingRight=4;overflow=hidden;rotatable=0;points=[[0,0.5],[1,0.5]];portConstraint=eastwest;fontSize=12;" parent="8U6sPxt56-lUsNDC9dBj-169" vertex="1">
          <mxGeometry y="101.11111111111111" width="550" height="31" as="geometry" />
        </mxCell>
        <mxCell id="8U6sPxt56-lUsNDC9dBj-174" value="+authenticateUser(userAccountNumber: int, userPIN: int) : boolean" style="text;strokeColor=none;fillColor=none;align=left;verticalAlign=top;spacingLeft=4;spacingRight=4;overflow=hidden;rotatable=0;points=[[0,0.5],[1,0.5]];portConstraint=eastwest;fontSize=12;" parent="8U6sPxt56-lUsNDC9dBj-169" vertex="1">
          <mxGeometry y="132.11111111111111" width="550" height="31" as="geometry" />
        </mxCell>
        <mxCell id="8U6sPxt56-lUsNDC9dBj-175" value="+getAvailableBalance(userAccountNumber: int) : double" style="text;strokeColor=none;fillColor=none;align=left;verticalAlign=top;spacingLeft=4;spacingRight=4;overflow=hidden;rotatable=0;points=[[0,0.5],[1,0.5]];portConstraint=eastwest;fontSize=12;" parent="8U6sPxt56-lUsNDC9dBj-169" vertex="1">
          <mxGeometry y="163.11111111111111" width="550" height="31" as="geometry" />
        </mxCell>
        <mxCell id="8U6sPxt56-lUsNDC9dBj-176" value="+getTotalBalance(userAccountNumber: int) : double" style="text;strokeColor=none;fillColor=none;align=left;verticalAlign=top;spacingLeft=4;spacingRight=4;overflow=hidden;rotatable=0;points=[[0,0.5],[1,0.5]];portConstraint=eastwest;fontSize=12;" parent="8U6sPxt56-lUsNDC9dBj-169" vertex="1">
          <mxGeometry y="194.11111111111111" width="550" height="31" as="geometry" />
        </mxCell>
        <mxCell id="8U6sPxt56-lUsNDC9dBj-177" value="+credit(userAccountNumber: int, amount: double) : void" style="text;strokeColor=none;fillColor=none;align=left;verticalAlign=top;spacingLeft=4;spacingRight=4;overflow=hidden;rotatable=0;points=[[0,0.5],[1,0.5]];portConstraint=eastwest;fontSize=12;" parent="8U6sPxt56-lUsNDC9dBj-169" vertex="1">
          <mxGeometry y="225.11111111111111" width="550" height="31" as="geometry" />
        </mxCell>
        <mxCell id="KpxgFs7-lDWQwkG9Y63v-48" style="edgeStyle=orthogonalEdgeStyle;rounded=0;orthogonalLoop=1;jettySize=auto;html=1;endArrow=none;endFill=0;fontSize=12;" parent="8U6sPxt56-lUsNDC9dBj-169" source="8U6sPxt56-lUsNDC9dBj-178" edge="1">
          <mxGeometry relative="1" as="geometry">
            <mxPoint x="1560" y="700" as="targetPoint" />
            <Array as="points">
              <mxPoint x="670" y="272" />
              <mxPoint x="670" y="700" />
            </Array>
          </mxGeometry>
        </mxCell>
        <mxCell id="8U6sPxt56-lUsNDC9dBj-178" value="+debit(userAccountNumber: int, amount: double) : void" style="text;strokeColor=none;fillColor=none;align=left;verticalAlign=top;spacingLeft=4;spacingRight=4;overflow=hidden;rotatable=0;points=[[0,0.5],[1,0.5]];portConstraint=eastwest;fontSize=12;" parent="8U6sPxt56-lUsNDC9dBj-169" vertex="1">
          <mxGeometry y="256.1111111111111" width="550" height="31" as="geometry" />
        </mxCell>
        <mxCell id="8U6sPxt56-lUsNDC9dBj-179" value="Account" style="swimlane;fontStyle=1;align=center;verticalAlign=top;childLayout=stackLayout;horizontal=1;startSize=29.333333333333332;horizontalStack=0;resizeParent=1;resizeParentMax=0;resizeLast=0;collapsible=0;marginBottom=0;fontSize=12;" parent="1" vertex="1">
          <mxGeometry x="1990" y="-220" width="500" height="374.00333333333333" as="geometry" />
        </mxCell>
        <mxCell id="8U6sPxt56-lUsNDC9dBj-180" value="-accountNumber: int" style="text;strokeColor=none;fillColor=none;align=left;verticalAlign=top;spacingLeft=4;spacingRight=4;overflow=hidden;rotatable=0;points=[[0,0.5],[1,0.5]];portConstraint=eastwest;fontSize=12;" parent="8U6sPxt56-lUsNDC9dBj-179" vertex="1">
          <mxGeometry y="29.333333333333332" width="500" height="29" as="geometry" />
        </mxCell>
        <mxCell id="8U6sPxt56-lUsNDC9dBj-181" value="-pin: int" style="text;strokeColor=none;fillColor=none;align=left;verticalAlign=top;spacingLeft=4;spacingRight=4;overflow=hidden;rotatable=0;points=[[0,0.5],[1,0.5]];portConstraint=eastwest;fontSize=12;" parent="8U6sPxt56-lUsNDC9dBj-179" vertex="1">
          <mxGeometry y="58.33333333333333" width="500" height="29" as="geometry" />
        </mxCell>
        <mxCell id="8U6sPxt56-lUsNDC9dBj-182" value="-availableBalance: double" style="text;strokeColor=none;fillColor=none;align=left;verticalAlign=top;spacingLeft=4;spacingRight=4;overflow=hidden;rotatable=0;points=[[0,0.5],[1,0.5]];portConstraint=eastwest;fontSize=12;" parent="8U6sPxt56-lUsNDC9dBj-179" vertex="1">
          <mxGeometry y="87.33333333333333" width="500" height="29" as="geometry" />
        </mxCell>
        <mxCell id="8U6sPxt56-lUsNDC9dBj-183" value="-totalBalance: double" style="text;strokeColor=none;fillColor=none;align=left;verticalAlign=top;spacingLeft=4;spacingRight=4;overflow=hidden;rotatable=0;points=[[0,0.5],[1,0.5]];portConstraint=eastwest;fontSize=12;" parent="8U6sPxt56-lUsNDC9dBj-179" vertex="1">
          <mxGeometry y="116.33333333333333" width="500" height="29" as="geometry" />
        </mxCell>
        <mxCell id="8U6sPxt56-lUsNDC9dBj-184" style="line;strokeWidth=1;fillColor=none;align=left;verticalAlign=middle;spacingTop=-1;spacingLeft=3;spacingRight=3;rotatable=0;labelPosition=right;points=[];portConstraint=eastwest;strokeColor=inherit;fontSize=12;" parent="8U6sPxt56-lUsNDC9dBj-179" vertex="1">
          <mxGeometry y="145.33333333333331" width="500" height="8" as="geometry" />
        </mxCell>
        <mxCell id="8U6sPxt56-lUsNDC9dBj-185" value="&lt;&lt;constructor&gt;&gt;Account(theAccountNumber: int, thePIN: int,&#xa; theAvailableBalance: double, theTotalBalance: double)" style="text;strokeColor=none;fillColor=none;align=left;verticalAlign=top;spacingLeft=4;spacingRight=4;overflow=hidden;rotatable=0;points=[[0,0.5],[1,0.5]];portConstraint=eastwest;fontSize=12;" parent="8U6sPxt56-lUsNDC9dBj-179" vertex="1">
          <mxGeometry y="153.33333333333331" width="500" height="46.67" as="geometry" />
        </mxCell>
        <mxCell id="8U6sPxt56-lUsNDC9dBj-186" value="+validatePIN(userPIN: int) : boolean" style="text;strokeColor=none;fillColor=none;align=left;verticalAlign=top;spacingLeft=4;spacingRight=4;overflow=hidden;rotatable=0;points=[[0,0.5],[1,0.5]];portConstraint=eastwest;fontSize=12;" parent="8U6sPxt56-lUsNDC9dBj-179" vertex="1">
          <mxGeometry y="200.00333333333333" width="500" height="29" as="geometry" />
        </mxCell>
        <mxCell id="8U6sPxt56-lUsNDC9dBj-187" value="+getAvailableBalance() : double" style="text;strokeColor=none;fillColor=none;align=left;verticalAlign=top;spacingLeft=4;spacingRight=4;overflow=hidden;rotatable=0;points=[[0,0.5],[1,0.5]];portConstraint=eastwest;fontSize=12;" parent="8U6sPxt56-lUsNDC9dBj-179" vertex="1">
          <mxGeometry y="229.00333333333333" width="500" height="29" as="geometry" />
        </mxCell>
        <mxCell id="8U6sPxt56-lUsNDC9dBj-188" value="+getTotalBalance() : double" style="text;strokeColor=none;fillColor=none;align=left;verticalAlign=top;spacingLeft=4;spacingRight=4;overflow=hidden;rotatable=0;points=[[0,0.5],[1,0.5]];portConstraint=eastwest;fontSize=12;" parent="8U6sPxt56-lUsNDC9dBj-179" vertex="1">
          <mxGeometry y="258.00333333333333" width="500" height="29" as="geometry" />
        </mxCell>
        <mxCell id="8U6sPxt56-lUsNDC9dBj-189" value="+credit(amount: double) : void" style="text;strokeColor=none;fillColor=none;align=left;verticalAlign=top;spacingLeft=4;spacingRight=4;overflow=hidden;rotatable=0;points=[[0,0.5],[1,0.5]];portConstraint=eastwest;fontSize=12;" parent="8U6sPxt56-lUsNDC9dBj-179" vertex="1">
          <mxGeometry y="287.00333333333333" width="500" height="29" as="geometry" />
        </mxCell>
        <mxCell id="8U6sPxt56-lUsNDC9dBj-190" value="+debit(amount: double) : void" style="text;strokeColor=none;fillColor=none;align=left;verticalAlign=top;spacingLeft=4;spacingRight=4;overflow=hidden;rotatable=0;points=[[0,0.5],[1,0.5]];portConstraint=eastwest;fontSize=12;" parent="8U6sPxt56-lUsNDC9dBj-179" vertex="1">
          <mxGeometry y="316.00333333333333" width="500" height="29" as="geometry" />
        </mxCell>
        <mxCell id="8U6sPxt56-lUsNDC9dBj-191" value="+getAccountNumber() : int" style="text;strokeColor=none;fillColor=none;align=left;verticalAlign=top;spacingLeft=4;spacingRight=4;overflow=hidden;rotatable=0;points=[[0,0.5],[1,0.5]];portConstraint=eastwest;fontSize=12;" parent="8U6sPxt56-lUsNDC9dBj-179" vertex="1">
          <mxGeometry y="345.00333333333333" width="500" height="29" as="geometry" />
        </mxCell>
        <mxCell id="8U6sPxt56-lUsNDC9dBj-192" value="&lt;&lt;abstract&gt;&gt;&#xa;Transaction" style="swimlane;fontStyle=1;align=center;verticalAlign=top;childLayout=stackLayout;horizontal=1;startSize=60;horizontalStack=0;resizeParent=1;resizeParentMax=0;resizeLast=0;collapsible=0;marginBottom=0;fontSize=12;" parent="1" vertex="1">
          <mxGeometry x="1190" y="190" width="610" height="340" as="geometry" />
        </mxCell>
        <mxCell id="8U6sPxt56-lUsNDC9dBj-193" value="-accountNumber: int" style="text;strokeColor=none;fillColor=none;align=left;verticalAlign=top;spacingLeft=4;spacingRight=4;overflow=hidden;rotatable=0;points=[[0,0.5],[1,0.5]];portConstraint=eastwest;fontSize=12;" parent="8U6sPxt56-lUsNDC9dBj-192" vertex="1">
          <mxGeometry y="60" width="610" height="32" as="geometry" />
        </mxCell>
        <mxCell id="8U6sPxt56-lUsNDC9dBj-194" value="-screen: Screen" style="text;strokeColor=none;fillColor=none;align=left;verticalAlign=top;spacingLeft=4;spacingRight=4;overflow=hidden;rotatable=0;points=[[0,0.5],[1,0.5]];portConstraint=eastwest;fontSize=12;" parent="8U6sPxt56-lUsNDC9dBj-192" vertex="1">
          <mxGeometry y="92" width="610" height="32" as="geometry" />
        </mxCell>
        <mxCell id="8U6sPxt56-lUsNDC9dBj-195" value="-bankDatabase: BankDatabase" style="text;strokeColor=none;fillColor=none;align=left;verticalAlign=top;spacingLeft=4;spacingRight=4;overflow=hidden;rotatable=0;points=[[0,0.5],[1,0.5]];portConstraint=eastwest;fontSize=12;" parent="8U6sPxt56-lUsNDC9dBj-192" vertex="1">
          <mxGeometry y="124" width="610" height="32" as="geometry" />
        </mxCell>
        <mxCell id="8U6sPxt56-lUsNDC9dBj-196" style="line;strokeWidth=1;fillColor=none;align=left;verticalAlign=middle;spacingTop=-1;spacingLeft=3;spacingRight=3;rotatable=0;labelPosition=right;points=[];portConstraint=eastwest;strokeColor=inherit;fontSize=12;" parent="8U6sPxt56-lUsNDC9dBj-192" vertex="1">
          <mxGeometry y="156" width="610" height="8" as="geometry" />
        </mxCell>
        <mxCell id="8U6sPxt56-lUsNDC9dBj-197" value="&lt;&lt;constructor&gt;&gt;Transaction(userAccountNumber: int, atmScreen: Screen, &#xa;atmBankDatabase: BankDatabase)" style="text;strokeColor=none;fillColor=none;align=left;verticalAlign=top;spacingLeft=4;spacingRight=4;overflow=hidden;rotatable=0;points=[[0,0.5],[1,0.5]];portConstraint=eastwest;fontSize=12;" parent="8U6sPxt56-lUsNDC9dBj-192" vertex="1">
          <mxGeometry y="164" width="610" height="48" as="geometry" />
        </mxCell>
        <mxCell id="8U6sPxt56-lUsNDC9dBj-198" value="+getAccountNumber() : int" style="text;strokeColor=none;fillColor=none;align=left;verticalAlign=top;spacingLeft=4;spacingRight=4;overflow=hidden;rotatable=0;points=[[0,0.5],[1,0.5]];portConstraint=eastwest;fontSize=12;" parent="8U6sPxt56-lUsNDC9dBj-192" vertex="1">
          <mxGeometry y="212" width="610" height="32" as="geometry" />
        </mxCell>
        <mxCell id="8U6sPxt56-lUsNDC9dBj-199" value="+getScreen() : Screen" style="text;strokeColor=none;fillColor=none;align=left;verticalAlign=top;spacingLeft=4;spacingRight=4;overflow=hidden;rotatable=0;points=[[0,0.5],[1,0.5]];portConstraint=eastwest;fontSize=12;" parent="8U6sPxt56-lUsNDC9dBj-192" vertex="1">
          <mxGeometry y="244" width="610" height="32" as="geometry" />
        </mxCell>
        <mxCell id="8U6sPxt56-lUsNDC9dBj-200" value="+getBankDatabase() : BankDatabase" style="text;strokeColor=none;fillColor=none;align=left;verticalAlign=top;spacingLeft=4;spacingRight=4;overflow=hidden;rotatable=0;points=[[0,0.5],[1,0.5]];portConstraint=eastwest;fontSize=12;" parent="8U6sPxt56-lUsNDC9dBj-192" vertex="1">
          <mxGeometry y="276" width="610" height="32" as="geometry" />
        </mxCell>
        <mxCell id="8U6sPxt56-lUsNDC9dBj-201" value="+execute() : void" style="text;strokeColor=none;fillColor=none;align=left;verticalAlign=top;spacingLeft=4;spacingRight=4;overflow=hidden;rotatable=0;points=[[0,0.5],[1,0.5]];portConstraint=eastwest;fontSize=12;" parent="8U6sPxt56-lUsNDC9dBj-192" vertex="1">
          <mxGeometry y="308" width="610" height="32" as="geometry" />
        </mxCell>
        <mxCell id="KpxgFs7-lDWQwkG9Y63v-9" style="edgeStyle=orthogonalEdgeStyle;rounded=0;orthogonalLoop=1;jettySize=auto;html=1;endArrow=none;endFill=0;exitX=0.854;exitY=-0.006;exitDx=0;exitDy=0;exitPerimeter=0;fontSize=12;" parent="1" source="8U6sPxt56-lUsNDC9dBj-202" edge="1">
          <mxGeometry relative="1" as="geometry">
            <mxPoint x="2770" y="570" as="targetPoint" />
            <Array as="points">
              <mxPoint x="1081" y="570" />
            </Array>
          </mxGeometry>
        </mxCell>
        <mxCell id="KpxgFs7-lDWQwkG9Y63v-11" style="edgeStyle=orthogonalEdgeStyle;rounded=0;orthogonalLoop=1;jettySize=auto;html=1;entryX=0.5;entryY=0;entryDx=0;entryDy=0;endArrow=none;endFill=0;exitX=0.5;exitY=0;exitDx=0;exitDy=0;fontSize=12;" parent="1" source="8U6sPxt56-lUsNDC9dBj-202" target="8U6sPxt56-lUsNDC9dBj-215" edge="1">
          <mxGeometry relative="1" as="geometry">
            <Array as="points">
              <mxPoint x="915" y="630" />
              <mxPoint x="2040" y="630" />
              <mxPoint x="2040" y="680" />
            </Array>
          </mxGeometry>
        </mxCell>
        <mxCell id="8U6sPxt56-lUsNDC9dBj-202" value="BalanceInquiry" style="swimlane;fontStyle=1;align=center;verticalAlign=top;childLayout=stackLayout;horizontal=1;startSize=40.57142857142857;horizontalStack=0;resizeParent=1;resizeParentMax=0;resizeLast=0;collapsible=0;marginBottom=0;fontSize=12;" parent="1" vertex="1">
          <mxGeometry x="680" y="684.11" width="470" height="141.00142857142856" as="geometry" />
        </mxCell>
        <mxCell id="8U6sPxt56-lUsNDC9dBj-203" style="line;strokeWidth=1;fillColor=none;align=left;verticalAlign=middle;spacingTop=-1;spacingLeft=3;spacingRight=3;rotatable=0;labelPosition=right;points=[];portConstraint=eastwest;strokeColor=inherit;fontSize=12;" parent="8U6sPxt56-lUsNDC9dBj-202" vertex="1">
          <mxGeometry y="40.57142857142857" width="470" height="8" as="geometry" />
        </mxCell>
        <mxCell id="8U6sPxt56-lUsNDC9dBj-204" value="&lt;&lt;constructor&gt;&gt;BalanceInquiry(userAccountNumber: int, &#xa;atmScreen: Screen, atmBankDatabase: BankDatabase)" style="text;strokeColor=none;fillColor=none;align=left;verticalAlign=top;spacingLeft=4;spacingRight=4;overflow=hidden;rotatable=0;points=[[0,0.5],[1,0.5]];portConstraint=eastwest;fontSize=12;" parent="8U6sPxt56-lUsNDC9dBj-202" vertex="1">
          <mxGeometry y="48.57142857142857" width="470" height="51.43" as="geometry" />
        </mxCell>
        <mxCell id="8U6sPxt56-lUsNDC9dBj-205" value="+execute() : void" style="text;strokeColor=none;fillColor=none;align=left;verticalAlign=top;spacingLeft=4;spacingRight=4;overflow=hidden;rotatable=0;points=[[0,0.5],[1,0.5]];portConstraint=eastwest;fontSize=12;" parent="8U6sPxt56-lUsNDC9dBj-202" vertex="1">
          <mxGeometry y="100.00142857142856" width="470" height="41" as="geometry" />
        </mxCell>
        <mxCell id="KpxgFs7-lDWQwkG9Y63v-8" style="edgeStyle=orthogonalEdgeStyle;rounded=0;orthogonalLoop=1;jettySize=auto;html=1;endArrow=none;endFill=0;exitX=0.878;exitY=-0.003;exitDx=0;exitDy=0;exitPerimeter=0;fontSize=12;" parent="1" source="8U6sPxt56-lUsNDC9dBj-206" edge="1">
          <mxGeometry relative="1" as="geometry">
            <mxPoint x="2770" y="580" as="targetPoint" />
            <Array as="points">
              <mxPoint x="1666" y="580" />
            </Array>
          </mxGeometry>
        </mxCell>
        <mxCell id="KpxgFs7-lDWQwkG9Y63v-27" style="edgeStyle=orthogonalEdgeStyle;rounded=0;orthogonalLoop=1;jettySize=auto;html=1;entryX=0.5;entryY=0;entryDx=0;entryDy=0;startArrow=diamondThin;startFill=0;startSize=16;endArrow=none;endFill=0;fontSize=12;" parent="1" source="8U6sPxt56-lUsNDC9dBj-206" target="8U6sPxt56-lUsNDC9dBj-159" edge="1">
          <mxGeometry relative="1" as="geometry" />
        </mxCell>
        <mxCell id="8U6sPxt56-lUsNDC9dBj-206" value="Withdrawal" style="swimlane;fontStyle=1;align=center;verticalAlign=top;childLayout=stackLayout;horizontal=1;startSize=32;horizontalStack=0;resizeParent=1;resizeParentMax=0;resizeLast=0;collapsible=0;marginBottom=0;fontSize=12;" parent="1" vertex="1">
          <mxGeometry x="1245" y="680" width="480" height="242" as="geometry" />
        </mxCell>
        <mxCell id="8U6sPxt56-lUsNDC9dBj-207" value="-amount: int" style="text;strokeColor=none;fillColor=none;align=left;verticalAlign=top;spacingLeft=4;spacingRight=4;overflow=hidden;rotatable=0;points=[[0,0.5],[1,0.5]];portConstraint=eastwest;fontSize=12;" parent="8U6sPxt56-lUsNDC9dBj-206" vertex="1">
          <mxGeometry y="32" width="480" height="18" as="geometry" />
        </mxCell>
        <mxCell id="8U6sPxt56-lUsNDC9dBj-208" value="-keypad: Keypad" style="text;strokeColor=none;fillColor=none;align=left;verticalAlign=top;spacingLeft=4;spacingRight=4;overflow=hidden;rotatable=0;points=[[0,0.5],[1,0.5]];portConstraint=eastwest;fontSize=12;" parent="8U6sPxt56-lUsNDC9dBj-206" vertex="1">
          <mxGeometry y="50" width="480" height="20" as="geometry" />
        </mxCell>
        <mxCell id="8U6sPxt56-lUsNDC9dBj-209" value="-cashDispenser: CashDispenser" style="text;strokeColor=none;fillColor=none;align=left;verticalAlign=top;spacingLeft=4;spacingRight=4;overflow=hidden;rotatable=0;points=[[0,0.5],[1,0.5]];portConstraint=eastwest;fontSize=12;" parent="8U6sPxt56-lUsNDC9dBj-206" vertex="1">
          <mxGeometry y="70" width="480" height="20" as="geometry" />
        </mxCell>
        <mxCell id="8U6sPxt56-lUsNDC9dBj-210" value="-CANCELED: int" style="text;strokeColor=none;fillColor=none;align=left;verticalAlign=top;spacingLeft=4;spacingRight=4;overflow=hidden;rotatable=0;points=[[0,0.5],[1,0.5]];portConstraint=eastwest;fontSize=12;" parent="8U6sPxt56-lUsNDC9dBj-206" vertex="1">
          <mxGeometry y="90" width="480" height="20" as="geometry" />
        </mxCell>
        <mxCell id="8U6sPxt56-lUsNDC9dBj-211" style="line;strokeWidth=1;fillColor=none;align=left;verticalAlign=middle;spacingTop=-1;spacingLeft=3;spacingRight=3;rotatable=0;labelPosition=right;points=[];portConstraint=eastwest;strokeColor=inherit;fontSize=12;" parent="8U6sPxt56-lUsNDC9dBj-206" vertex="1">
          <mxGeometry y="110" width="480" height="8" as="geometry" />
        </mxCell>
        <mxCell id="8U6sPxt56-lUsNDC9dBj-212" value="&lt;&lt;constructor&gt;&gt;Withdrawal(userAccountNumber: int, &#xa;atmScreen: Screen, atmBankDatabase: BankDatabase, &#xa;atmKeypad: Keypad, atmCashDispenser: CashDispenser)" style="text;strokeColor=none;fillColor=none;align=left;verticalAlign=top;spacingLeft=4;spacingRight=4;overflow=hidden;rotatable=0;points=[[0,0.5],[1,0.5]];portConstraint=eastwest;fontSize=12;" parent="8U6sPxt56-lUsNDC9dBj-206" vertex="1">
          <mxGeometry y="118" width="480" height="72" as="geometry" />
        </mxCell>
        <mxCell id="8U6sPxt56-lUsNDC9dBj-213" value="+execute() : void" style="text;strokeColor=none;fillColor=none;align=left;verticalAlign=top;spacingLeft=4;spacingRight=4;overflow=hidden;rotatable=0;points=[[0,0.5],[1,0.5]];portConstraint=eastwest;fontSize=12;" parent="8U6sPxt56-lUsNDC9dBj-206" vertex="1">
          <mxGeometry y="190" width="480" height="20" as="geometry" />
        </mxCell>
        <mxCell id="8U6sPxt56-lUsNDC9dBj-214" value="-displayMenuOfAmounts() : int" style="text;strokeColor=none;fillColor=none;align=left;verticalAlign=top;spacingLeft=4;spacingRight=4;overflow=hidden;rotatable=0;points=[[0,0.5],[1,0.5]];portConstraint=eastwest;fontSize=12;" parent="8U6sPxt56-lUsNDC9dBj-206" vertex="1">
          <mxGeometry y="210" width="480" height="32" as="geometry" />
        </mxCell>
        <mxCell id="KpxgFs7-lDWQwkG9Y63v-7" style="edgeStyle=orthogonalEdgeStyle;rounded=0;orthogonalLoop=1;jettySize=auto;html=1;endArrow=none;endFill=0;exitX=0.884;exitY=-0.001;exitDx=0;exitDy=0;exitPerimeter=0;fontSize=12;" parent="1" source="8U6sPxt56-lUsNDC9dBj-215" edge="1">
          <mxGeometry relative="1" as="geometry">
            <mxPoint x="2770" y="590" as="targetPoint" />
            <Array as="points">
              <mxPoint x="2200" y="590" />
            </Array>
          </mxGeometry>
        </mxCell>
        <mxCell id="KpxgFs7-lDWQwkG9Y63v-30" style="edgeStyle=orthogonalEdgeStyle;rounded=0;orthogonalLoop=1;jettySize=auto;html=1;entryX=0.5;entryY=0;entryDx=0;entryDy=0;startArrow=diamondThin;startFill=0;endArrow=none;endFill=0;startSize=16;fontSize=12;" parent="1" source="8U6sPxt56-lUsNDC9dBj-215" target="8U6sPxt56-lUsNDC9dBj-166" edge="1">
          <mxGeometry relative="1" as="geometry" />
        </mxCell>
        <mxCell id="8U6sPxt56-lUsNDC9dBj-215" value="Deposit" style="swimlane;fontStyle=1;align=center;verticalAlign=top;childLayout=stackLayout;horizontal=1;startSize=32;horizontalStack=0;resizeParent=1;resizeParentMax=0;resizeLast=0;collapsible=0;marginBottom=0;fontSize=12;" parent="1" vertex="1">
          <mxGeometry x="1808" y="680" width="460" height="242" as="geometry" />
        </mxCell>
        <mxCell id="8U6sPxt56-lUsNDC9dBj-216" value="-amount: double" style="text;strokeColor=none;fillColor=none;align=left;verticalAlign=top;spacingLeft=4;spacingRight=4;overflow=hidden;rotatable=0;points=[[0,0.5],[1,0.5]];portConstraint=eastwest;fontSize=12;" parent="8U6sPxt56-lUsNDC9dBj-215" vertex="1">
          <mxGeometry y="32" width="460" height="18" as="geometry" />
        </mxCell>
        <mxCell id="8U6sPxt56-lUsNDC9dBj-217" value="-keypad: Keypad" style="text;strokeColor=none;fillColor=none;align=left;verticalAlign=top;spacingLeft=4;spacingRight=4;overflow=hidden;rotatable=0;points=[[0,0.5],[1,0.5]];portConstraint=eastwest;fontSize=12;" parent="8U6sPxt56-lUsNDC9dBj-215" vertex="1">
          <mxGeometry y="50" width="460" height="20" as="geometry" />
        </mxCell>
        <mxCell id="8U6sPxt56-lUsNDC9dBj-218" value="-depositSlot: DepositSlot" style="text;strokeColor=none;fillColor=none;align=left;verticalAlign=top;spacingLeft=4;spacingRight=4;overflow=hidden;rotatable=0;points=[[0,0.5],[1,0.5]];portConstraint=eastwest;fontSize=12;" parent="8U6sPxt56-lUsNDC9dBj-215" vertex="1">
          <mxGeometry y="70" width="460" height="20" as="geometry" />
        </mxCell>
        <mxCell id="8U6sPxt56-lUsNDC9dBj-219" value="-CANCELED: int" style="text;strokeColor=none;fillColor=none;align=left;verticalAlign=top;spacingLeft=4;spacingRight=4;overflow=hidden;rotatable=0;points=[[0,0.5],[1,0.5]];portConstraint=eastwest;fontSize=12;" parent="8U6sPxt56-lUsNDC9dBj-215" vertex="1">
          <mxGeometry y="90" width="460" height="22" as="geometry" />
        </mxCell>
        <mxCell id="8U6sPxt56-lUsNDC9dBj-220" style="line;strokeWidth=1;fillColor=none;align=left;verticalAlign=middle;spacingTop=-1;spacingLeft=3;spacingRight=3;rotatable=0;labelPosition=right;points=[];portConstraint=eastwest;strokeColor=inherit;fontSize=12;" parent="8U6sPxt56-lUsNDC9dBj-215" vertex="1">
          <mxGeometry y="112" width="460" height="8" as="geometry" />
        </mxCell>
        <mxCell id="8U6sPxt56-lUsNDC9dBj-221" value="&lt;&lt;constructor&gt;&gt;Deposit(userAccountNumber: int, &#xa;atmScreen: Screen, atmBankDatabase: BankDatabase, &#xa;atmKeypad: Keypad, atmDepositSlot: DepositSlot)" style="text;strokeColor=none;fillColor=none;align=left;verticalAlign=top;spacingLeft=4;spacingRight=4;overflow=hidden;rotatable=0;points=[[0,0.5],[1,0.5]];portConstraint=eastwest;fontSize=12;" parent="8U6sPxt56-lUsNDC9dBj-215" vertex="1">
          <mxGeometry y="120" width="460" height="70" as="geometry" />
        </mxCell>
        <mxCell id="8U6sPxt56-lUsNDC9dBj-222" value="+execute() : void" style="text;strokeColor=none;fillColor=none;align=left;verticalAlign=top;spacingLeft=4;spacingRight=4;overflow=hidden;rotatable=0;points=[[0,0.5],[1,0.5]];portConstraint=eastwest;fontSize=12;" parent="8U6sPxt56-lUsNDC9dBj-215" vertex="1">
          <mxGeometry y="190" width="460" height="20" as="geometry" />
        </mxCell>
        <mxCell id="8U6sPxt56-lUsNDC9dBj-223" value="-promptForDepositAmount() : double" style="text;strokeColor=none;fillColor=none;align=left;verticalAlign=top;spacingLeft=4;spacingRight=4;overflow=hidden;rotatable=0;points=[[0,0.5],[1,0.5]];portConstraint=eastwest;fontSize=12;" parent="8U6sPxt56-lUsNDC9dBj-215" vertex="1">
          <mxGeometry y="210" width="460" height="32" as="geometry" />
        </mxCell>
        <mxCell id="1njEwHtBBPeEInLd1pCz-59" value="&lt;font&gt;1&lt;/font&gt;" style="text;html=1;whiteSpace=wrap;strokeColor=none;fillColor=none;align=center;verticalAlign=middle;rounded=0;fontSize=12;" parent="1" vertex="1">
          <mxGeometry x="1748" y="-110" width="60" height="30" as="geometry" />
        </mxCell>
        <mxCell id="KpxgFs7-lDWQwkG9Y63v-18" style="edgeStyle=orthogonalEdgeStyle;rounded=0;orthogonalLoop=1;jettySize=auto;html=1;entryX=0;entryY=0.5;entryDx=0;entryDy=0;startArrow=diamondThin;startFill=1;startSize=16;endArrow=none;endFill=0;fontSize=12;" parent="1" source="8U6sPxt56-lUsNDC9dBj-127" target="8U6sPxt56-lUsNDC9dBj-143" edge="1">
          <mxGeometry relative="1" as="geometry">
            <Array as="points">
              <mxPoint x="2630" y="323" />
            </Array>
          </mxGeometry>
        </mxCell>
        <mxCell id="8U6sPxt56-lUsNDC9dBj-127" value="ATMCaseStudy" style="swimlane;fontStyle=1;align=center;verticalAlign=top;childLayout=stackLayout;horizontal=1;startSize=47.2;horizontalStack=0;resizeParent=1;resizeParentMax=0;resizeLast=0;collapsible=0;marginBottom=0;fontSize=12;" parent="1" vertex="1">
          <mxGeometry x="2170" y="278" width="271" height="90" as="geometry" />
        </mxCell>
        <mxCell id="8U6sPxt56-lUsNDC9dBj-128" style="line;strokeWidth=1;fillColor=none;align=left;verticalAlign=middle;spacingTop=-1;spacingLeft=3;spacingRight=3;rotatable=0;labelPosition=right;points=[];portConstraint=eastwest;strokeColor=inherit;fontSize=12;" parent="8U6sPxt56-lUsNDC9dBj-127" vertex="1">
          <mxGeometry y="47.2" width="271" height="8" as="geometry" />
        </mxCell>
        <mxCell id="8U6sPxt56-lUsNDC9dBj-129" value="+main(args: String[]) : void" style="text;strokeColor=none;fillColor=none;align=left;verticalAlign=top;spacingLeft=4;spacingRight=4;overflow=hidden;rotatable=0;points=[[0,0.5],[1,0.5]];portConstraint=eastwest;fontSize=12;" parent="8U6sPxt56-lUsNDC9dBj-127" vertex="1">
          <mxGeometry y="55.2" width="271" height="34.8" as="geometry" />
        </mxCell>
        <mxCell id="8U6sPxt56-lUsNDC9dBj-149" value="Screen" style="swimlane;fontStyle=1;align=center;verticalAlign=top;childLayout=stackLayout;horizontal=1;startSize=36.888888888888886;horizontalStack=0;resizeParent=1;resizeParentMax=0;resizeLast=0;collapsible=0;marginBottom=0;fontSize=12;" parent="1" vertex="1">
          <mxGeometry x="2580" y="680" width="387" height="145.10888888888888" as="geometry" />
        </mxCell>
        <mxCell id="8U6sPxt56-lUsNDC9dBj-150" value=" " style="line;strokeWidth=1;fillColor=none;align=left;verticalAlign=middle;spacingTop=-1;spacingLeft=3;spacingRight=3;rotatable=0;labelPosition=right;points=[];portConstraint=eastwest;strokeColor=inherit;fontSize=12;" parent="8U6sPxt56-lUsNDC9dBj-149" vertex="1">
          <mxGeometry y="36.888888888888886" width="387" height="23.11" as="geometry" />
        </mxCell>
        <mxCell id="8U6sPxt56-lUsNDC9dBj-151" value="+displayMessage(message: String) : void" style="text;strokeColor=none;fillColor=none;align=left;verticalAlign=top;spacingLeft=4;spacingRight=4;overflow=hidden;rotatable=0;points=[[0,0.5],[1,0.5]];portConstraint=eastwest;fontSize=12;" parent="8U6sPxt56-lUsNDC9dBj-149" vertex="1">
          <mxGeometry y="59.998888888888885" width="387" height="25.11" as="geometry" />
        </mxCell>
        <mxCell id="8U6sPxt56-lUsNDC9dBj-152" value="+displayMessageLine(message: String) : void" style="text;strokeColor=none;fillColor=none;align=left;verticalAlign=top;spacingLeft=4;spacingRight=4;overflow=hidden;rotatable=0;points=[[0,0.5],[1,0.5]];portConstraint=eastwest;fontSize=12;" parent="8U6sPxt56-lUsNDC9dBj-149" vertex="1">
          <mxGeometry y="85.10888888888888" width="387" height="30" as="geometry" />
        </mxCell>
        <mxCell id="8U6sPxt56-lUsNDC9dBj-153" value="+displayDollarAmount(amount: double) : void" style="text;strokeColor=none;fillColor=none;align=left;verticalAlign=top;spacingLeft=4;spacingRight=4;overflow=hidden;rotatable=0;points=[[0,0.5],[1,0.5]];portConstraint=eastwest;fontSize=12;" parent="8U6sPxt56-lUsNDC9dBj-149" vertex="1">
          <mxGeometry y="115.10888888888888" width="387" height="30" as="geometry" />
        </mxCell>
        <mxCell id="KpxgFs7-lDWQwkG9Y63v-10" style="edgeStyle=orthogonalEdgeStyle;rounded=0;orthogonalLoop=1;jettySize=auto;html=1;endArrow=block;endFill=0;endSize=16;entryX=0.485;entryY=0.959;entryDx=0;entryDy=0;entryPerimeter=0;fontSize=12;" parent="1" source="8U6sPxt56-lUsNDC9dBj-206" target="8U6sPxt56-lUsNDC9dBj-201" edge="1">
          <mxGeometry relative="1" as="geometry">
            <mxPoint x="1450" y="540" as="targetPoint" />
            <Array as="points">
              <mxPoint x="1485" y="604" />
              <mxPoint x="1486" y="604" />
            </Array>
          </mxGeometry>
        </mxCell>
        <mxCell id="KpxgFs7-lDWQwkG9Y63v-12" value="&lt;font&gt;1&lt;/font&gt;" style="text;html=1;whiteSpace=wrap;strokeColor=none;fillColor=none;align=center;verticalAlign=middle;rounded=0;fontSize=12;" parent="1" vertex="1">
          <mxGeometry x="2750" y="438" width="60" height="30" as="geometry" />
        </mxCell>
        <mxCell id="KpxgFs7-lDWQwkG9Y63v-13" value="1" style="text;html=1;whiteSpace=wrap;strokeColor=none;fillColor=none;align=center;verticalAlign=middle;rounded=0;fontSize=12;" parent="1" vertex="1">
          <mxGeometry x="2755" y="650" width="60" height="30" as="geometry" />
        </mxCell>
        <mxCell id="KpxgFs7-lDWQwkG9Y63v-14" value="&lt;font&gt;1&lt;/font&gt;" style="text;html=1;whiteSpace=wrap;strokeColor=none;fillColor=none;align=center;verticalAlign=middle;rounded=0;fontSize=12;" parent="1" vertex="1">
          <mxGeometry x="2410" y="650" width="60" height="30" as="geometry" />
        </mxCell>
        <mxCell id="KpxgFs7-lDWQwkG9Y63v-15" value="&lt;font&gt;1&lt;/font&gt;" style="text;html=1;whiteSpace=wrap;strokeColor=none;fillColor=none;align=center;verticalAlign=middle;rounded=0;fontSize=12;" parent="1" vertex="1">
          <mxGeometry x="2190" y="650" width="60" height="30" as="geometry" />
        </mxCell>
        <mxCell id="KpxgFs7-lDWQwkG9Y63v-16" value="&lt;font&gt;1&lt;/font&gt;" style="text;html=1;whiteSpace=wrap;strokeColor=none;fillColor=none;align=center;verticalAlign=middle;rounded=0;fontSize=12;" parent="1" vertex="1">
          <mxGeometry x="1650" y="650" width="60" height="30" as="geometry" />
        </mxCell>
        <mxCell id="KpxgFs7-lDWQwkG9Y63v-17" value="&lt;font&gt;1&lt;/font&gt;" style="text;html=1;whiteSpace=wrap;strokeColor=none;fillColor=none;align=center;verticalAlign=middle;rounded=0;fontSize=12;" parent="1" vertex="1">
          <mxGeometry x="1070" y="650" width="60" height="30" as="geometry" />
        </mxCell>
        <mxCell id="KpxgFs7-lDWQwkG9Y63v-19" value="&lt;font&gt;1&lt;/font&gt;" style="text;html=1;whiteSpace=wrap;strokeColor=none;fillColor=none;align=center;verticalAlign=middle;rounded=0;fontSize=12;" parent="1" vertex="1">
          <mxGeometry x="2421" y="290" width="60" height="30" as="geometry" />
        </mxCell>
        <mxCell id="KpxgFs7-lDWQwkG9Y63v-20" value="&lt;font&gt;1&lt;/font&gt;" style="text;html=1;whiteSpace=wrap;strokeColor=none;fillColor=none;align=center;verticalAlign=middle;rounded=0;fontSize=12;" parent="1" vertex="1">
          <mxGeometry x="2590" y="320" width="60" height="30" as="geometry" />
        </mxCell>
        <mxCell id="KpxgFs7-lDWQwkG9Y63v-21" style="edgeStyle=orthogonalEdgeStyle;rounded=0;orthogonalLoop=1;jettySize=auto;html=1;entryX=0.25;entryY=0;entryDx=0;entryDy=0;exitX=0.765;exitY=0.002;exitDx=0;exitDy=0;exitPerimeter=0;startArrow=diamondThin;startFill=0;startSize=16;endArrow=none;endFill=0;fontSize=12;" parent="1" source="8U6sPxt56-lUsNDC9dBj-215" target="8U6sPxt56-lUsNDC9dBj-154" edge="1">
          <mxGeometry relative="1" as="geometry">
            <Array as="points">
              <mxPoint x="2160" y="640" />
              <mxPoint x="2385" y="640" />
            </Array>
          </mxGeometry>
        </mxCell>
        <mxCell id="KpxgFs7-lDWQwkG9Y63v-22" value="&lt;font&gt;1&lt;/font&gt;" style="text;html=1;whiteSpace=wrap;strokeColor=none;fillColor=none;align=center;verticalAlign=middle;rounded=0;fontSize=12;" parent="1" vertex="1">
          <mxGeometry x="2140" y="650" width="60" height="30" as="geometry" />
        </mxCell>
        <mxCell id="KpxgFs7-lDWQwkG9Y63v-23" value="&lt;font&gt;1&lt;/font&gt;" style="text;html=1;whiteSpace=wrap;strokeColor=none;fillColor=none;align=center;verticalAlign=middle;rounded=0;fontSize=12;" parent="1" vertex="1">
          <mxGeometry x="2361" y="650" width="60" height="30" as="geometry" />
        </mxCell>
        <mxCell id="KpxgFs7-lDWQwkG9Y63v-24" style="edgeStyle=orthogonalEdgeStyle;rounded=0;orthogonalLoop=1;jettySize=auto;html=1;entryX=0.105;entryY=-0.002;entryDx=0;entryDy=0;entryPerimeter=0;startArrow=diamondThin;startFill=0;endArrow=none;endFill=0;startSize=16;fontSize=12;" parent="1" target="8U6sPxt56-lUsNDC9dBj-154" edge="1">
          <mxGeometry relative="1" as="geometry">
            <mxPoint x="1600" y="680" as="sourcePoint" />
            <Array as="points">
              <mxPoint x="1600" y="660" />
              <mxPoint x="1600" y="650" />
              <mxPoint x="2350" y="650" />
            </Array>
          </mxGeometry>
        </mxCell>
        <mxCell id="KpxgFs7-lDWQwkG9Y63v-25" value="&lt;font&gt;1&lt;/font&gt;" style="text;html=1;whiteSpace=wrap;strokeColor=none;fillColor=none;align=center;verticalAlign=middle;rounded=0;fontSize=12;" parent="1" vertex="1">
          <mxGeometry x="1580" y="650" width="60" height="30" as="geometry" />
        </mxCell>
        <mxCell id="KpxgFs7-lDWQwkG9Y63v-26" value="&lt;font&gt;1&lt;/font&gt;" style="text;html=1;whiteSpace=wrap;strokeColor=none;fillColor=none;align=center;verticalAlign=middle;rounded=0;fontSize=12;" parent="1" vertex="1">
          <mxGeometry x="2330" y="650" width="60" height="30" as="geometry" />
        </mxCell>
        <mxCell id="KpxgFs7-lDWQwkG9Y63v-28" value="&lt;font&gt;1&lt;/font&gt;" style="text;html=1;whiteSpace=wrap;strokeColor=none;fillColor=none;align=center;verticalAlign=middle;rounded=0;fontSize=12;" parent="1" vertex="1">
          <mxGeometry x="1440" y="920" width="60" height="30" as="geometry" />
        </mxCell>
        <mxCell id="KpxgFs7-lDWQwkG9Y63v-29" value="&lt;font&gt;1&lt;/font&gt;" style="text;html=1;whiteSpace=wrap;strokeColor=none;fillColor=none;align=center;verticalAlign=middle;rounded=0;fontSize=12;" parent="1" vertex="1">
          <mxGeometry x="1470" y="950" width="50" height="30" as="geometry" />
        </mxCell>
        <mxCell id="KpxgFs7-lDWQwkG9Y63v-31" value="1" style="text;html=1;whiteSpace=wrap;strokeColor=none;fillColor=none;align=center;verticalAlign=middle;rounded=0;fontSize=12;" parent="1" vertex="1">
          <mxGeometry x="2008" y="910" width="60" height="30" as="geometry" />
        </mxCell>
        <mxCell id="KpxgFs7-lDWQwkG9Y63v-32" value="&lt;font&gt;1&lt;/font&gt;" style="text;html=1;whiteSpace=wrap;strokeColor=none;fillColor=none;align=center;verticalAlign=middle;rounded=0;fontSize=12;" parent="1" vertex="1">
          <mxGeometry x="2030" y="950" width="60" height="30" as="geometry" />
        </mxCell>
        <mxCell id="KpxgFs7-lDWQwkG9Y63v-38" value="&lt;font&gt;1&lt;/font&gt;" style="text;html=1;whiteSpace=wrap;strokeColor=none;fillColor=none;align=center;verticalAlign=middle;rounded=0;fontSize=12;" parent="1" vertex="1">
          <mxGeometry x="2150" y="1030" width="60" height="30" as="geometry" />
        </mxCell>
        <mxCell id="KpxgFs7-lDWQwkG9Y63v-39" value="&lt;font&gt;1&lt;/font&gt;" style="text;html=1;whiteSpace=wrap;strokeColor=none;fillColor=none;align=center;verticalAlign=middle;rounded=0;fontSize=12;" parent="1" vertex="1">
          <mxGeometry x="1480" y="1165" width="60" height="30" as="geometry" />
        </mxCell>
        <mxCell id="KpxgFs7-lDWQwkG9Y63v-40" style="edgeStyle=orthogonalEdgeStyle;rounded=0;orthogonalLoop=1;jettySize=auto;html=1;endArrow=diamondThin;endFill=0;endSize=16;fontSize=12;" parent="1" source="8U6sPxt56-lUsNDC9dBj-169" edge="1">
          <mxGeometry relative="1" as="geometry">
            <mxPoint x="1485" y="190" as="targetPoint" />
          </mxGeometry>
        </mxCell>
        <mxCell id="KpxgFs7-lDWQwkG9Y63v-41" value="&lt;font&gt;1&lt;/font&gt;" style="text;html=1;whiteSpace=wrap;strokeColor=none;fillColor=none;align=center;verticalAlign=middle;rounded=0;fontSize=12;" parent="1" vertex="1">
          <mxGeometry x="1480" y="160" width="60" height="30" as="geometry" />
        </mxCell>
        <mxCell id="KpxgFs7-lDWQwkG9Y63v-42" value="&lt;font&gt;1&lt;/font&gt;" style="text;html=1;whiteSpace=wrap;strokeColor=none;fillColor=none;align=center;verticalAlign=middle;rounded=0;fontSize=12;" parent="1" vertex="1">
          <mxGeometry x="1440" y="67.11" width="60" height="30" as="geometry" />
        </mxCell>
        <mxCell id="KpxgFs7-lDWQwkG9Y63v-43" style="edgeStyle=orthogonalEdgeStyle;rounded=0;orthogonalLoop=1;jettySize=auto;html=1;entryX=-0.005;entryY=1.052;entryDx=0;entryDy=0;entryPerimeter=0;startArrow=diamondThin;startFill=1;endArrow=none;endFill=0;startSize=16;fontSize=12;" parent="1" source="8U6sPxt56-lUsNDC9dBj-174" target="8U6sPxt56-lUsNDC9dBj-183" edge="1">
          <mxGeometry relative="1" as="geometry" />
        </mxCell>
        <mxCell id="KpxgFs7-lDWQwkG9Y63v-44" value="&lt;font&gt;1..*&lt;/font&gt;" style="text;html=1;whiteSpace=wrap;strokeColor=none;fillColor=none;align=center;verticalAlign=middle;rounded=0;fontSize=12;" parent="1" vertex="1">
          <mxGeometry x="1930" y="-70" width="60" height="30" as="geometry" />
        </mxCell>
        <mxCell id="KpxgFs7-lDWQwkG9Y63v-45" style="edgeStyle=orthogonalEdgeStyle;rounded=0;orthogonalLoop=1;jettySize=auto;html=1;startArrow=diamondThin;startFill=0;endArrow=none;endFill=0;startSize=16;fontSize=12;" parent="1" edge="1">
          <mxGeometry relative="1" as="geometry">
            <mxPoint x="1800" y="500" as="sourcePoint" />
            <mxPoint x="2601" y="680" as="targetPoint" />
            <Array as="points">
              <mxPoint x="1800" y="500" />
              <mxPoint x="2601" y="500" />
            </Array>
          </mxGeometry>
        </mxCell>
        <mxCell id="KpxgFs7-lDWQwkG9Y63v-46" value="&lt;font&gt;1&lt;/font&gt;" style="text;html=1;whiteSpace=wrap;strokeColor=none;fillColor=none;align=center;verticalAlign=middle;rounded=0;fontSize=12;" parent="1" vertex="1">
          <mxGeometry x="1780" y="468" width="60" height="30" as="geometry" />
        </mxCell>
        <mxCell id="KpxgFs7-lDWQwkG9Y63v-47" value="&lt;font&gt;1&lt;/font&gt;" style="text;html=1;whiteSpace=wrap;strokeColor=none;fillColor=none;align=center;verticalAlign=middle;rounded=0;fontSize=12;" parent="1" vertex="1">
          <mxGeometry x="2590" y="650" width="60" height="30" as="geometry" />
        </mxCell>
        <mxCell id="KpxgFs7-lDWQwkG9Y63v-49" value="&lt;font&gt;1&lt;/font&gt;" style="text;html=1;whiteSpace=wrap;strokeColor=none;fillColor=none;align=center;verticalAlign=middle;rounded=0;fontSize=12;" parent="1" vertex="1">
          <mxGeometry x="1760" y="20" width="60" height="30" as="geometry" />
        </mxCell>
        <mxCell id="fhcTJb9NJiLIuwGdiwah-1" value="" style="shape=waypoint;sketch=0;size=6;pointerEvents=1;points=[];fillColor=none;resizable=0;rotatable=0;perimeter=centerPerimeter;snapToPoint=1;fontSize=12;" parent="1" vertex="1">
          <mxGeometry x="600" y="-390" width="20" height="20" as="geometry" />
        </mxCell>
        <mxCell id="fhcTJb9NJiLIuwGdiwah-2" value="" style="shape=waypoint;sketch=0;size=6;pointerEvents=1;points=[];fillColor=none;resizable=0;rotatable=0;perimeter=centerPerimeter;snapToPoint=1;fontSize=12;" parent="1" vertex="1">
          <mxGeometry x="3090" y="1360" width="20" height="20" as="geometry" />
        </mxCell>
      </root>
    </mxGraphModel>
  </diagram>
</mxfile>
